<?xml version="1.0" encoding="UTF-8" standalone="no"?>
<!DOCTYPE svg PUBLIC "-//W3C//DTD SVG 1.1//EN" "http://www.w3.org/Graphics/SVG/1.1/DTD/svg11.dtd">
<svg width="100%" height="100%" viewBox="0 0 1464 868" version="1.1" xmlns="http://www.w3.org/2000/svg" xmlns:xlink="http://www.w3.org/1999/xlink" xml:space="preserve" xmlns:serif="http://www.serif.com/" style="fill-rule:evenodd;clip-rule:evenodd;stroke-linecap:round;stroke-linejoin:round;stroke-miterlimit:1.5;">
    <g transform="matrix(1,0,0,1,-32.6688,-187.274)">
        <path d="M1171.31,807.768L1172.2,723.278L1231.22,722.461L1231.22,517.541L1174.63,516.817L1172.08,437.608L1493.77,437.608L1493.77,804.448" style="fill:rgb(236,236,236);"/>
        <path d="M1099.51,1052.51L1099.39,806.364L1493.77,807.768L1493.77,1050.13" style="fill:rgb(236,236,236);"/>
        <path d="M1102.71,435.83L1100.31,187.274L1493.77,190.691L1493.77,435.83" style="fill:rgb(236,236,236);"/>
        <path d="M40.039,736.258L175.625,735.916L179.827,1052.67L1492.52,1051.78L1493.77,190.294L181.766,191.656L179.036,497.387L41.47,498.31" style="fill:none;stroke:rgb(255,0,255);stroke-width:4.17px;"/>
        <path d="M34.752,619.5L98.531,619.5" style="fill:none;stroke:rgb(255,0,255);stroke-width:4.17px;"/>
        <path d="M421.41,653.213L612.103,653.313L613.709,581.713L420.393,584.102" style="fill:none;stroke:rgb(255,0,255);stroke-width:4.17px;"/>
        <path d="M412.607,619.5L524.801,619.5" style="fill:none;stroke:rgb(255,0,255);stroke-width:4.17px;"/>
        <path d="M180.518,805.409L1116.65,803.276" style="fill:none;stroke:rgb(255,0,255);stroke-width:4.17px;"/>
        <path d="M1151.04,808.259L1493.77,804.932" style="fill:none;stroke:rgb(255,0,255);stroke-width:4.17px;"/>
        <path d="M1096.64,803.276L1099.92,1052.67" style="fill:none;stroke:rgb(255,0,255);stroke-width:4.17px;"/>
        <path d="M714.036,722.742L801.494,722.461" style="fill:none;stroke:rgb(255,0,255);stroke-width:4.17px;"/>
        <path d="M829.337,723.278L1231.06,723.012L1231.22,519.043L858.787,517.541" style="fill:none;stroke:rgb(255,0,255);stroke-width:4.17px;"/>
        <path d="M828.042,516.817L714.036,519.043L714.036,722.461" style="fill:none;stroke:rgb(255,0,255);stroke-width:4.17px;"/>
        <path d="M180.518,437.263L1116.65,435.83" style="fill:none;stroke:rgb(255,0,255);stroke-width:4.17px;"/>
        <path d="M1151.04,437.608L1493.77,437.151" style="fill:none;stroke:rgb(255,0,255);stroke-width:4.17px;"/>
        <path d="M1103.73,435.83L1100.31,191.753" style="fill:none;stroke:rgb(255,0,255);stroke-width:4.17px;"/>
    </g>
</svg>
