<?xml version="1.0" encoding="UTF-8" standalone="no"?>
<!DOCTYPE svg PUBLIC "-//W3C//DTD SVG 1.1//EN" "http://www.w3.org/Graphics/SVG/1.1/DTD/svg11.dtd">
<svg width="1687px" height="501px" version="1.1" xmlns="http://www.w3.org/2000/svg" xmlns:xlink="http://www.w3.org/1999/xlink" xml:space="preserve" xmlns:serif="http://www.serif.com/" style="fill-rule:evenodd;clip-rule:evenodd;stroke-linecap:round;stroke-linejoin:round;stroke-miterlimit:1.5;">
    <g transform="matrix(1,0,0,1,-32.6714,-183.31)">
        <path d="M35.603,680.096L1711.84,682.018L1716.75,185.393L37.218,189.132L35.603,680.096Z" style="fill:none;stroke:#f0f;stroke-width:4.17px;"/>
        <g transform="matrix(1,0,0,1,-7.94244,-2.64418)">
            <path d="M778.122,309.606L962.004,311.406L961.704,247.823L777.931,247.84" style="fill:none;stroke:#f0f;stroke-width:4.17px;"/>
        </g>
        <path d="M637.562,185.393L626.982,319.03" style="fill:none;stroke:#f0f;stroke-width:4.17px;"/>
        <path d="M655.765,352.669L695.767,389.566" style="fill:none;stroke:#f0f;stroke-width:4.17px;"/>
        <path d="M1130.56,393.387L695.767,389.566L582.767,387.656L582.298,682.018" style="fill:none;stroke:#f0f;stroke-width:4.17px;"/>
        <path d="M1133.03,185.393L1132.07,334.86L1716.75,331.657" style="fill:none;stroke:#f0f;stroke-width:4.17px;"/>
        <path d="M1019.39,389.566L1015.59,496.892L949.464,497.791" style="fill:none;stroke:#f0f;stroke-width:4.17px;"/>
        <path d="M946.374,560.054L950.101,682.018L769.989,682.018L769.989,497.791L949.464,497.791" style="fill:#ececec;stroke:#f0f;stroke-width:4.17px;"/>
        <path d="M582.298,334.86L582.298,301.96L377.348,301.174L380.138,185.393L36.582,185.393L34.755,682.018L579.904,682.018L582.675,371.118" style="fill:#ececec;stroke:#f0f;stroke-width:4.17px;"/>
    </g>

        <text x="530" y="720">
      214
    </text>
</svg>
