<?xml version="1.0" encoding="UTF-8" standalone="no"?>
<!DOCTYPE svg PUBLIC "-//W3C//DTD SVG 1.1//EN" "http://www.w3.org/Graphics/SVG/1.1/DTD/svg11.dtd">
<svg width="1686px" height="501px" version="1.1" xmlns="http://www.w3.org/2000/svg" xmlns:xlink="http://www.w3.org/1999/xlink" xml:space="preserve" xmlns:serif="http://www.serif.com/" style="fill-rule:evenodd;clip-rule:evenodd;stroke-linecap:round;stroke-linejoin:round;stroke-miterlimit:1.5;">
    <g transform="matrix(1,0,0,1,-33.5199,-183.31)">
        <g transform="matrix(1,0,0,0.987624,0,4.26033)">
            <path d="M601.631,185.393L601.631,290.291L328.499,288.304L328.03,344.241L235.527,344.241" style="fill:none;stroke:#f0f;stroke-width:4.19px;"/>
        </g>
        <path d="M235.527,410.34L235.527,682.018L38.292,682.018L36.47,344.241L235.527,344.241" style="fill:#ececec;stroke:#f0f;stroke-width:4.17px;"/>
        <path d="M35.603,680.096L1711.84,682.018L1716.75,185.393L37.218,189.132L35.603,680.096Z" style="fill:none;stroke:#f0f;stroke-width:4.17px;"/>
        <path d="M559.446,475.598L604.027,476.109L604.027,375.043L1165.6,375.444L1165.9,473.54L1186.57,474.828" style="fill:none;stroke:#f0f;stroke-width:4.17px;"/>
        <path d="M1148.82,187.87L1146.87,293.742L1423.6,295.014L1424.81,344.241L1514.91,343.039" style="fill:none;stroke:#f0f;stroke-width:4.17px;"/>
        <path d="M1516.7,390.252L1517.24,682.018L1716.75,682.018L1716.75,344.241L1514.91,344.241" style="fill:#ececec;stroke:#f0f;stroke-width:4.17px;"/>
        <path d="M1242.99,425.576L1514.91,425.576L1514.91,682.018L1240.65,682.018L1239.91,456.747" style="fill:#ececec;stroke:#f0f;stroke-width:4.17px;"/>
        <path d="M1216.43,476.109L1239.98,476.109L1239.91,682.018L877.383,682.018L877.383,476.109L1186.57,476.109" style="fill:#ececec;stroke:#f0f;stroke-width:4.17px;"/>
        <path d="M532.687,476.109L508.356,476.109L511.998,682.018L877,682.018L877,476.109L561.801,476.109" style="fill:#ececec;stroke:#f0f;stroke-width:4.17px;"/>
        <path d="M299.057,425.576L508.356,425.576L508.356,682.018L236.223,682.018L235.527,425.576L257.457,425.576" style="fill:#ececec;stroke:#f0f;stroke-width:4.17px;"/>
        <path d="M778.122,309.606L962.004,311.406L961.704,247.823L777.931,247.84" style="fill:none;stroke:#f0f;stroke-width:4.17px;"/>
    </g>
</svg>
