<?xml version="1.0" encoding="UTF-8" standalone="no"?>
<!DOCTYPE svg PUBLIC "-//W3C//DTD SVG 1.1//EN" "http://www.w3.org/Graphics/SVG/1.1/DTD/svg11.dtd">
<svg width="1532px" height="388px" version="1.1" xmlns="http://www.w3.org/2000/svg" xmlns:xlink="http://www.w3.org/1999/xlink" xml:space="preserve" xmlns:serif="http://www.serif.com/" style="fill-rule:evenodd;clip-rule:evenodd;stroke-linecap:round;stroke-linejoin:round;stroke-miterlimit:1.5;">
    <g transform="matrix(1,0,0,1,-111.573,-213.249)">
        <path d="M113.854,595.914L1641.11,598.644L1637.75,215.332L113.656,217.335L113.854,595.914Z" style="fill:none;stroke:#fc00ff;stroke-width:4.17px;"/>
        <path d="M602.574,216.693L602.081,322.903L602.574,216.693Z" style="fill:none;stroke:#fc00ff;stroke-width:4.17px;"/>
        <path d="M1152.55,216.693L1148.7,322.903L1152.55,216.693Z" style="fill:none;stroke:#fc00ff;stroke-width:4.17px;"/>
        <path d="M1148.7,598.644L1150.63,363.911L1148.7,598.644Z" style="fill:none;stroke:#fc00ff;stroke-width:4.17px;"/>
        <path d="M602.081,363.911L602.081,598.644L602.081,363.911Z" style="fill:none;stroke:#fc00ff;stroke-width:4.17px;"/>
        <path d="M602.081,322.903L602.081,315.253L236.577,315.615L238.963,593.578L602.081,598.644" style="fill:#ececec;stroke:#fc00ff;stroke-width:4.17px;"/>
        <path d="M1150.63,298.194L1561.42,298.245L1564.86,598.644L1148.7,598.644" style="fill:#ececec;stroke:#fc00ff;stroke-width:4.17px;"/>
        <path d="M602.081,363.911L1035.84,363.911L1031.76,456.949L1059.46,456.949L1061.24,598.644" style="fill:none;stroke:#fc00ff;stroke-width:4.17px;"/>
        <path d="M788.072,277.475L958.718,276.888L957.775,216.914" style="fill:none;stroke:#fc00ff;stroke-width:4.17px;"/>
    </g>
</svg>
