<?xml version="1.0" encoding="UTF-8" standalone="no"?>
<!DOCTYPE svg PUBLIC "-//W3C//DTD SVG 1.1//EN" "http://www.w3.org/Graphics/SVG/1.1/DTD/svg11.dtd">
<svg width="100%" height="100%" viewBox="0 0 1219 644" version="1.1" xmlns="http://www.w3.org/2000/svg" xmlns:xlink="http://www.w3.org/1999/xlink" xml:space="preserve" xmlns:serif="http://www.serif.com/" style="fill-rule:evenodd;clip-rule:evenodd;stroke-linecap:round;stroke-linejoin:round;stroke-miterlimit:1.5;">
    <g transform="matrix(1,0,0,1,-504.43,-182.302)">
        <path d="M1298.26,485.011L1299.62,654.067L1519.08,660.434L1528.44,485.011L1298.26,485.011Z" style="fill:#ececec;"/>
        <path d="M509.472,213.562L506.514,724.029L702.441,720.561L702.54,654.472L983.529,654.043L984.598,821.458" style="fill:none;stroke:#f0f;stroke-width:4.17px;"/>
        <path d="M1234.86,823.788L1237.82,653.726L1519.13,660.338L1521.89,719.865L1720.65,721.972L1717.8,213.562L1450.53,213.562L1453.38,275.786L1158.87,276.532L1158.25,186.374" style="fill:none;stroke:#f0f;stroke-width:4.17px;"/>
        <path d="M1031.88,184.385L1031.03,276.631L775.795,272.94L773.682,213.562L510.496,213.562" style="fill:none;stroke:#f0f;stroke-width:4.17px;"/>
        <path d="M703.129,655.361L700.452,484.373L802.224,484.464" style="fill:none;stroke:#f0f;stroke-width:4.17px;"/>
        <path d="M842.747,652.549L842.961,484.659L827.153,484.373L918.217,484.373" style="fill:none;stroke:#f0f;stroke-width:4.17px;"/>
        <path d="M917.255,505.081L917.032,604.13" style="fill:none;stroke:#f0f;stroke-width:4.17px;"/>
        <path d="M983.759,655.361L983.915,484.373L918.217,484.373" style="fill:none;stroke:#f0f;stroke-width:4.17px;"/>
        <path d="M1238.24,655.361L1238.11,484.373L1261.3,484.373" style="fill:none;stroke:#f0f;stroke-width:4.17px;"/>
        <path d="M1283.18,484.373L1298.3,484.373" style="fill:none;stroke:#f0f;stroke-width:4.17px;"/>
        <path d="M1502.05,484.373L1298.3,484.373L1299.78,655.361" style="fill:none;stroke:#f0f;stroke-width:4.17px;"/>
        <path d="M1527.97,484.373L1519.28,659.74" style="fill:none;stroke:#f0f;stroke-width:4.17px;"/>
        <path d="M1718.89,403.655L1588.71,403.373L1589.09,484.373L1578.13,484.373L1719.79,484.373" style="fill:none;stroke:#f0f;stroke-width:4.17px;"/>
        <path d="M1452.95,276.678L1459.52,401.072L1554.68,403.373" style="fill:none;stroke:#f0f;stroke-width:4.17px;"/>
        <path d="M1410.66,403.373L1422.85,403.373" style="fill:none;stroke:#f0f;stroke-width:4.17px;"/>
        <path d="M1442.51,403.373L1459.85,403.373" style="fill:none;stroke:#f0f;stroke-width:4.17px;"/>
        <path d="M1380.99,403.373L1347.46,403.373" style="fill:none;stroke:#f0f;stroke-width:4.17px;"/>
        <path d="M1320.08,403.373L1281.72,403.373" style="fill:none;stroke:#f0f;stroke-width:4.17px;"/>
        <path d="M1259.1,403.373L1218.24,403.373L1218.6,276.678" style="fill:none;stroke:#f0f;stroke-width:4.17px;"/>
        <path d="M1064.69,546.521L1065.11,484.955" style="fill:none;stroke:#f0f;stroke-width:4.17px;"/>
        <path d="M1161.86,545.898L1161.48,485.011" style="fill:none;stroke:#f0f;stroke-width:4.17px;"/>
        <path d="M1187.62,546.521L1187.25,484.955" style="fill:none;stroke:#f0f;stroke-width:4.17px;"/>
        <path d="M1036.93,545.898L1036.83,485.011" style="fill:none;stroke:#f0f;stroke-width:4.17px;"/>
        <path d="M965.169,403.373L991.875,403.373L994.872,276.678" style="fill:none;stroke:#f0f;stroke-width:4.17px;"/>
        <path d="M938.498,403.373L823.242,403.373" style="fill:none;stroke:#f0f;stroke-width:4.17px;"/>
        <path d="M799.161,403.373L770.232,403.373" style="fill:none;stroke:#f0f;stroke-width:4.17px;"/>
        <path d="M770.232,424.312L770.232,403.373" style="fill:none;stroke:#f0f;stroke-width:4.17px;"/>
        <path d="M770.232,445.248L770.232,485.011" style="fill:none;stroke:#f0f;stroke-width:4.17px;"/>
        <path d="M980.021,653.156L1065.28,655.555" style="fill:none;stroke:#f0f;stroke-width:4.17px;"/>
        <path d="M1160.36,655.137L1239.15,654.067" style="fill:none;stroke:#f0f;stroke-width:4.17px;"/>
        <g transform="matrix(-0.175357,0,0,0.986109,1309.29,6.47195)">
            <path d="M1115.56,529.5L1115.12,498.975" style="fill:none;stroke:#f0f;stroke-width:5.88px;"/>
        </g>
    </g>
</svg>
