<?xml version="1.0" encoding="UTF-8" standalone="no"?>
<!DOCTYPE svg PUBLIC "-//W3C//DTD SVG 1.1//EN" "http://www.w3.org/Graphics/SVG/1.1/DTD/svg11.dtd">
<svg width="100%" height="100%" viewBox="0 0 1227 507" version="1.1" xmlns="http://www.w3.org/2000/svg" xmlns:xlink="http://www.w3.org/1999/xlink" xml:space="preserve" xmlns:serif="http://www.serif.com/" style="fill-rule:evenodd;clip-rule:evenodd;stroke-linecap:round;stroke-linejoin:round;stroke-miterlimit:1.5;">
    <g transform="matrix(1,0,0,1,-495.171,-213.285)">
        <g>
            <path d="M510.032,215.368L510.032,392.147L776.532,394.628L772.869,216.894" style="fill:#ececec;"/>
            <path d="M1238.72,653.981L1001.22,655.961L1001.22,473.641L1234.73,483.466" style="fill:#fffcfc;"/>
            <path d="M1717.63,476.4L1717.63,717.264L1536.67,713.319L1520.56,660.471L1535.59,483.466" style="fill:#fffcfc;"/>
            <path d="M505.641,464.734L680.748,464.734L703.326,655.961L693.376,713.319L499.264,711.613" style="fill:#fffcfc;"/>
            <path d="M1001.22,476.4L1001.22,655.961L703.326,653.61L683.471,464.734" style="fill:#fffcfc;"/>
            <path d="M1531.72,483.466L1519.19,660.471L1238.72,651.308L1238.72,484.093" style="fill:#fffcfc;"/>
            <path d="M1452.3,217.247L1460.8,402.017L1560.36,402.125L1717.63,385.344L1717.63,224.741" style="fill:#fffcfc;"/>
        </g>
        <path d="M1347.61,402.424L1347.42,344.389" style="fill:none;stroke:#ff00f6;stroke-width:4.17px;"/>
        <path d="M1239.44,653.145L1518.13,660.9L1534.63,717.558L1719.21,717.162L1719.21,221.519L1451.15,215.368L1453.61,276.865" style="fill:none;stroke:#ff00f6;stroke-width:4.17px;"/>
        <path d="M1000.73,344.389L1000.73,276.4" style="fill:none;stroke:#ff00f6;stroke-width:4.17px;"/>
        <path d="M1111.06,398.221L1110.01,277.503" style="fill:none;stroke:#ff00f6;stroke-width:4.17px;"/>
        <path d="M1223.77,396.858L1208.11,396.543" style="fill:none;stroke:#ff00f6;stroke-width:4.17px;"/>
        <path d="M1000.73,398.221L1028.54,398.221" style="fill:none;stroke:#ff00f6;stroke-width:4.17px;"/>
        <path d="M1229.94,344.389L1232.23,276.4" style="fill:none;stroke:#ff00f6;stroke-width:4.17px;"/>
        <path d="M702.871,655.488L694.532,712.739L497.255,712.191L509.794,216.729" style="fill:none;stroke:#ff00f6;stroke-width:4.17px;"/>
        <path d="M1070.75,396.671L1164.66,396.671" style="fill:none;stroke:#ff00f6;stroke-width:4.17px;"/>
        <path d="M1238.19,654.691L1235.09,481.504L1398.59,480.314" style="fill:none;stroke:#f0f;stroke-width:4.17px;"/>
        <path d="M1427.25,481.587L1532.31,483.959" style="fill:none;stroke:#f0f;stroke-width:4.17px;"/>
        <path d="M1559.39,480.314L1532.31,483.959L1519.29,660.346" style="fill:none;stroke:#f0f;stroke-width:4.17px;"/>
        <path d="M1581.65,480.314L1583.68,403.373" style="fill:none;stroke:#f0f;stroke-width:4.17px;"/>
        <path d="M1559.39,403.373L1459.96,403.373L1453.73,275.807" style="fill:none;stroke:#f0f;stroke-width:4.17px;"/>
        <path d="M1000.73,653.156L1000.73,473.929L972.896,473.929" style="fill:none;stroke:#f0f;stroke-width:4.17px;"/>
        <g transform="matrix(1.04786,0,0,1,-30.834,0)">
            <path d="M513.043,395.832L644.303,395.832" style="fill:none;stroke:#f0f;stroke-width:4.07px;"/>
        </g>
        <path d="M505.641,464.734L635.167,464.734" style="fill:none;stroke:#ff00f6;stroke-width:4.17px;"/>
        <path d="M702.871,655.961L681.436,464.734L661.163,464.734L862.356,464.734" style="fill:none;stroke:#ff00f6;stroke-width:4.17px;"/>
        <path d="M972.313,473.641L888.386,472.938" style="fill:none;stroke:#ff00f6;stroke-width:4.17px;"/>
        <path d="M1176.54,483.466L1001.22,473.641" style="fill:none;stroke:#ff00f6;stroke-width:4.17px;"/>
        <path d="M1582.59,479.159L1717.63,473.641" style="fill:none;stroke:#ff00f6;stroke-width:4.17px;"/>
        <path d="M1584.61,403.726L1717.43,387.264" style="fill:none;stroke:#ff00f6;stroke-width:4.17px;"/>
        <path d="M668.762,395.832L776.687,395.832L776.687,273.029" style="fill:none;stroke:#f0f;stroke-width:4.17px;"/>
        <path d="M794.115,395.832L816.46,395.832" style="fill:none;stroke:#f0f;stroke-width:4.17px;"/>
        <path d="M839.529,395.832L856.601,395.832L856.601,275.754" style="fill:none;stroke:#f0f;stroke-width:4.17px;"/>
        <path d="M887.451,402.424L887.091,344.389" style="fill:none;stroke:#ff00f6;stroke-width:4.17px;"/>
        <path d="M914.161,344.389L1001.63,348.363" style="fill:none;stroke:#ff00f6;stroke-width:4.17px;"/>
        <path d="M914.161,396.671L1000.96,395.832" style="fill:none;stroke:#ff00f6;stroke-width:4.17px;"/>
        <path d="M913.763,318.129L1000.61,320.375" style="fill:none;stroke:#ff00f6;stroke-width:4.17px;"/>
        <path d="M1453.22,273.31L777.698,273.386L774.56,215.368L510.382,215.368" style="fill:none;stroke:#ff00f6;stroke-width:4.17px;"/>
        <path d="M703.26,654.356L980.021,653.156" style="fill:none;stroke:#f0f;stroke-width:4.17px;"/>
        <g transform="matrix(1.33093,0,0,1,-463.027,0)">
            <path d="M1410.66,403.373L1422.85,403.373" style="fill:none;stroke:#f0f;stroke-width:3.54px;"/>
        </g>
        <path d="M1442.51,403.373L1459.85,403.373" style="fill:none;stroke:#f0f;stroke-width:4.17px;"/>
        <g transform="matrix(1,0,0,1,15.8975,-0.949106)">
            <path d="M1380.99,403.373L1347.46,403.373" style="fill:none;stroke:#f0f;stroke-width:4.17px;"/>
        </g>
        <path d="M1225.41,396.671L1322.01,396.671L1322.01,344.389L1229.11,344.389L1225.41,396.671" style="fill:none;stroke:#ff00f6;stroke-width:4.17px;"/>
        <path d="M1000.96,349.864L1000.96,395.832" style="fill:none;stroke:#ff00f6;stroke-width:4.17px;"/>
        <path d="M914.161,344.389L914.161,396.252" style="fill:none;stroke:#ff00f6;stroke-width:4.17px;"/>
        <path d="M980.055,653.668L1239.44,655.471" style="fill:none;stroke:#ff00f6;stroke-width:4.17px;"/>
        <path d="M1239.44,481.442L1208.11,482.587" style="fill:none;stroke:#ff00f6;stroke-width:4.17px;"/>
        <path d="M1233.51,304.998L1308.82,304.998" style="fill:none;stroke:#ff00f6;stroke-width:4.17px;"/>
    </g>
</svg>
