<?xml version="1.0" encoding="UTF-8" standalone="no"?>
<!DOCTYPE svg PUBLIC "-//W3C//DTD SVG 1.1//EN" "http://www.w3.org/Graphics/SVG/1.1/DTD/svg11.dtd">
<svg width="100%" height="100%" viewBox="0 0 1370 869" version="1.1" xmlns="http://www.w3.org/2000/svg" xmlns:xlink="http://www.w3.org/1999/xlink" xml:space="preserve" xmlns:serif="http://www.serif.com/" style="fill-rule:evenodd;clip-rule:evenodd;stroke-linecap:round;stroke-linejoin:round;stroke-miterlimit:1.5;">
    <g transform="matrix(1,0,0,1,-36.9929,-183.98)">
        <path d="M39.076,1049.21L1404.06,1050.03L1401.38,193.437L39.428,186.064L39.076,1049.21" style="fill:none;stroke:rgb(255,0,255);stroke-width:4.17px;"/>
        <path d="M1052.22,660.972L1168.86,661.906" style="fill:none;stroke:rgb(255,0,255);stroke-width:4.17px;"/>
        <path d="M1055.48,733.06L1257.84,732.382L1256.82,588.371L1052.22,588.793" style="fill:none;stroke:rgb(255,0,255);stroke-width:4.17px;"/>
        <path d="M1052.22,1050.03L1052.22,831.68L1102.47,829.491" style="fill:none;stroke:rgb(255,0,255);stroke-width:4.17px;"/>
        <path d="M1143.2,830.605L1404.06,831.958" style="fill:none;stroke:rgb(255,0,255);stroke-width:4.17px;"/>
        <path d="M1052.22,829.491L931.926,829.491L931.703,733.06" style="fill:none;stroke:rgb(255,0,255);stroke-width:4.17px;"/>
        <path d="M930.125,701.946L929.902,691.1" style="fill:none;stroke:rgb(255,0,255);stroke-width:4.17px;"/>
        <path d="M931.703,661.906L931.703,652.007" style="fill:none;stroke:rgb(255,0,255);stroke-width:4.17px;"/>
        <path d="M931.703,627.838L931.703,613.17" style="fill:none;stroke:rgb(255,0,255);stroke-width:4.17px;"/>
        <path d="M931.703,591.526L931.703,487.869" style="fill:none;stroke:rgb(255,0,255);stroke-width:4.17px;"/>
        <path d="M967.483,487.347L1014.68,487.097" style="fill:none;stroke:rgb(255,0,255);stroke-width:4.17px;"/>
        <path d="M1087.91,487.869L1400.63,487.869" style="fill:none;stroke:rgb(255,0,255);stroke-width:4.17px;"/>
        <path d="M1046.28,487.347L1053.98,487.869" style="fill:none;stroke:rgb(255,0,255);stroke-width:4.17px;"/>
    </g>
</svg>
