<?xml version="1.0" encoding="UTF-8" standalone="no"?>
<!DOCTYPE svg PUBLIC "-//W3C//DTD SVG 1.1//EN" "http://www.w3.org/Graphics/SVG/1.1/DTD/svg11.dtd">
<svg width="100%" height="100%" viewBox="0 0 1370 869" version="1.1" xmlns="http://www.w3.org/2000/svg" xmlns:xlink="http://www.w3.org/1999/xlink" xml:space="preserve" xmlns:serif="http://www.serif.com/" style="fill-rule:evenodd;clip-rule:evenodd;stroke-linecap:round;stroke-linejoin:round;stroke-miterlimit:1.5;">
    <g transform="matrix(1,0,0,1,-36.9929,-183.98)">
        <path d="M1185.55,487.869L1188.28,193.815L1400.49,195.711L1400.49,487.869" style="fill:rgb(236,236,236);"/>
        <path d="M975.069,487.643L976.027,190.754L1185.55,193.815L1185.55,487.416" style="fill:rgb(236,236,236);"/>
        <path d="M895.572,193.815L897.257,487.869L685.149,487.416L684.728,190.754" style="fill:rgb(236,236,236);"/>
        <path d="M472.653,190.754L684.728,190.754L684.728,487.416L470.795,487.869" style="fill:rgb(236,236,236);"/>
        <path d="M976.062,487.416L974.835,195.897" style="fill:none;stroke:rgb(255,0,255);stroke-width:4.17px;"/>
        <path d="M1186.64,487.504L1187.67,194.539" style="fill:none;stroke:rgb(255,0,255);stroke-width:4.17px;"/>
        <g transform="matrix(1.16115,0,0,1,-143.405,0)">
            <path d="M968.63,487.416L889.877,487.416" style="fill:none;stroke:rgb(255,0,255);stroke-width:3.85px;"/>
        </g>
        <path d="M1011.91,487.869L1192.89,487.869" style="fill:none;stroke:rgb(255,0,255);stroke-width:4.17px;"/>
        <path d="M1223.96,487.416L1400.49,487.869" style="fill:none;stroke:rgb(255,0,255);stroke-width:4.17px;"/>
        <path d="M896.699,487.416L896.63,195.897" style="fill:none;stroke:rgb(255,0,255);stroke-width:4.17px;"/>
        <path d="M860.681,487.504L507.442,487.504" style="fill:none;stroke:rgb(255,0,255);stroke-width:4.17px;"/>
        <path d="M684.371,487.416L684.738,194.539" style="fill:none;stroke:rgb(255,0,255);stroke-width:4.17px;"/>
        <path d="M470.423,487.416L472.398,194.539" style="fill:none;stroke:rgb(255,0,255);stroke-width:4.17px;"/>
        <path d="M432.983,487.504L476.238,487.504" style="fill:none;stroke:rgb(255,0,255);stroke-width:4.17px;"/>
        <path d="M392.016,487.504L354.362,487.504L352.777,539.901" style="fill:none;stroke:rgb(255,0,255);stroke-width:4.17px;"/>
        <path d="M351.801,584.928L353.925,738.264L472.766,739.232L471.527,583.335L650.179,581.992" style="fill:none;stroke:rgb(255,0,255);stroke-width:4.17px;"/>
        <path d="M680.032,582.317L691.685,580.582" style="fill:none;stroke:rgb(255,0,255);stroke-width:4.17px;"/>
        <path d="M717.967,581.992L729.57,581.992" style="fill:none;stroke:rgb(255,0,255);stroke-width:4.17px;"/>
        <path d="M757.312,582.317L807.168,580.582" style="fill:none;stroke:rgb(255,0,255);stroke-width:4.17px;"/>
        <path d="M837.071,582.317L931.674,582.317" style="fill:none;stroke:rgb(255,0,255);stroke-width:4.17px;"/>
        <path d="M39.076,1049.21L1404.06,1050.03L1401.38,193.437L39.428,186.064L39.076,1049.21" style="fill:none;stroke:rgb(255,0,255);stroke-width:4.17px;"/>
        <path d="M1052.22,660.972L1168.86,661.906" style="fill:none;stroke:rgb(255,0,255);stroke-width:4.17px;"/>
        <path d="M1055.48,733.06L1257.84,732.382L1256.82,588.371L1052.22,588.793" style="fill:none;stroke:rgb(255,0,255);stroke-width:4.17px;"/>
        <path d="M1052.22,1050.03L1052.22,831.68L1102.47,829.491" style="fill:none;stroke:rgb(255,0,255);stroke-width:4.17px;"/>
        <path d="M1143.2,830.605L1404.06,831.958" style="fill:none;stroke:rgb(255,0,255);stroke-width:4.17px;"/>
        <path d="M1052.22,829.491L931.926,829.491L931.703,733.06" style="fill:none;stroke:rgb(255,0,255);stroke-width:4.17px;"/>
        <path d="M930.125,701.946L929.902,691.1" style="fill:none;stroke:rgb(255,0,255);stroke-width:4.17px;"/>
        <path d="M931.703,661.906L931.703,652.007" style="fill:none;stroke:rgb(255,0,255);stroke-width:4.17px;"/>
        <path d="M931.703,627.838L931.703,613.17" style="fill:none;stroke:rgb(255,0,255);stroke-width:4.17px;"/>
        <path d="M931.703,591.526L931.703,487.869" style="fill:none;stroke:rgb(255,0,255);stroke-width:4.17px;"/>
    </g>
</svg>
