<?xml version="1.0" encoding="UTF-8" standalone="no"?>
<!DOCTYPE svg PUBLIC "-//W3C//DTD SVG 1.1//EN" "http://www.w3.org/Graphics/SVG/1.1/DTD/svg11.dtd">
<svg width="100%" height="100%" viewBox="0 0 1311 764" version="1.1" xmlns="http://www.w3.org/2000/svg" xmlns:xlink="http://www.w3.org/1999/xlink" xml:space="preserve" xmlns:serif="http://www.serif.com/" style="fill-rule:evenodd;clip-rule:evenodd;stroke-linecap:round;stroke-linejoin:round;stroke-miterlimit:1.5;">
    <g transform="matrix(1,0,0,1,-49.605,-250.818)">
        <path d="M51.688,1002.18L1104.09,1012.71L1112.42,816.365L1347.45,813.19" style="fill:none;stroke:#f0f;stroke-width:4.17px;"/>
        <path d="M1357.98,657.638L1100.57,658.412L1096.08,254.102L914.883,252.902L914.883,647.996L877,648.544L877,813.19L668.084,813.19L667.452,629.232L545.64,628.314L544.881,712.085L496.908,714.026L497.233,813.19L300.105,813.19L300.488,731.938L51.688,730.945L51.688,1001.26" style="fill:none;stroke:#f0f;stroke-width:4.17px;"/>
        <path d="M930.409,813.19L990.093,813.19" style="fill:none;stroke:#f0f;stroke-width:4.17px;"/>
        <path d="M930.665,763.829L988.898,764.707" style="fill:none;stroke:#f0f;stroke-width:4.17px;"/>
        <path d="M877,701.503L990.093,701.713L988.898,651.233L1045.5,651.692L1044.51,573.791" style="fill:none;stroke:#f0f;stroke-width:4.17px;"/>
        <path d="M1045.5,382.922L1040.52,252.902L915.686,252.902L916.593,417.918L1042.52,418.779L1042.52,401.717" style="fill:#fffafa;stroke:#f0f;stroke-width:4.17px;"/>
        <path d="M1045.5,542.753L1042.52,418.779L915.686,418.779L915.686,573.791L1045.5,573.791L1045.5,561.856" style="fill:#fffafa;stroke:#f0f;stroke-width:4.17px;"/>
        <path d="M696.015,872.461L715.79,873.291L718.52,1008.9L554.196,1006.05L555.641,874.615L674.883,869.999" style="fill:#fffafa;stroke:#f0f;stroke-width:4.17px;"/>
        <path d="M778.466,872.503L715.79,873.291L718.52,1008.9L882.042,1008.9L884.388,869.999L800.057,869.999" style="fill:#fffafa;stroke:#f0f;stroke-width:4.17px;"/>
        <path d="M636.358,869.999L636.358,815.51L668.103,813.369" style="fill:none;stroke:#f0f;stroke-width:4.17px;"/>
        <path d="M919.145,869.999L1034.67,869.999" style="fill:none;stroke:#f0f;stroke-width:4.17px;"/>
        <path d="M969.324,869.999L969.476,939.448L1055.76,939.448L1056.61,869.999L1109.96,869.999" style="fill:none;stroke:#f0f;stroke-width:4.17px;"/>
        <path d="M1101.44,658.612L1102.82,733.36L1230.3,736.383L1231.29,658.566" style="fill:none;stroke:#f0f;stroke-width:4.17px;"/>
    </g>
</svg>
