<?xml version="1.0" encoding="UTF-8" standalone="no"?>
<!DOCTYPE svg PUBLIC "-//W3C//DTD SVG 1.1//EN" "http://www.w3.org/Graphics/SVG/1.1/DTD/svg11.dtd">
<svg width="100%" height="100%" viewBox="0 0 1311 764" version="1.1" xmlns="http://www.w3.org/2000/svg" xmlns:xlink="http://www.w3.org/1999/xlink" xml:space="preserve" xmlns:serif="http://www.serif.com/" style="fill-rule:evenodd;clip-rule:evenodd;stroke-linecap:round;stroke-linejoin:round;stroke-miterlimit:1.5;">
    <g transform="matrix(1,0,0,1,-49.605,-250.818)">
        <path d="M51.688,1002.18L1104.09,1012.71L1112.42,816.365L1347.45,813.19" style="fill:none;stroke:#f0f;stroke-width:4.17px;"/>
        <path d="M1357.98,657.638L1100.57,658.412L1096.08,254.102L914.883,252.902L914.883,647.996L877,648.544L877,813.19L668.084,813.19L667.452,629.232L545.64,628.314L544.881,712.085L496.908,714.026L497.233,813.19L300.105,813.19L300.488,731.938L51.688,730.945L51.688,1001.26" style="fill:none;stroke:#f0f;stroke-width:4.17px;"/>
        <path d="M930.409,813.19L990.093,813.19" style="fill:none;stroke:#f0f;stroke-width:4.17px;"/>
        <path d="M930.665,763.829L988.898,764.707" style="fill:none;stroke:#f0f;stroke-width:4.17px;"/>
        <path d="M696.015,872.461L715.79,873.291L718.52,1008.9L554.196,1006.05L555.641,874.615L674.883,869.999" style="fill:#fffafa;stroke:#f0f;stroke-width:4.17px;"/>
        <path d="M778.466,872.503L715.79,873.291L718.52,1008.9L882.042,1008.9L884.388,869.999L800.057,869.999" style="fill:#fffafa;stroke:#f0f;stroke-width:4.17px;"/>
        <path d="M51.938,780.604L149.264,781.451L150.592,733.362" style="fill:none;stroke:#f0f;stroke-width:4.17px;"/>
        <path d="M185.346,753.772L239.435,754.474L241.154,812.823" style="fill:none;stroke:#f0f;stroke-width:4.17px;"/>
        <path d="M496.302,812.823L630.953,812.823" style="fill:none;stroke:#f0f;stroke-width:4.17px;"/>
        <path d="M884.388,869.999L944.031,869.999L946.419,1008.9" style="fill:none;stroke:#f0f;stroke-width:4.17px;"/>
        <path d="M1121.89,812.823L1119.7,692.669L1289.72,695.817" style="fill:none;stroke:#f0f;stroke-width:4.17px;"/>
        <path d="M915.404,646.839L1099.96,640.861" style="fill:none;stroke:#f0f;stroke-width:4.17px;"/>
        <path d="M877,692.669L1006.7,692.669L1007.68,673.051" style="fill:none;stroke:#f0f;stroke-width:4.17px;"/>
        <path d="M553.798,877.292L150.931,876.795L148.682,782.374" style="fill:none;stroke:#f0f;stroke-width:4.17px;"/>
        <path d="M1072.31,869.999L1110.44,869.999L1104.46,1012.36L946.419,1008.9L942.34,873.753L1051.73,869.999" style="fill:#f5f5f5;stroke:#f0f;stroke-width:4.17px;"/>
    </g>
</svg>
