<?xml version="1.0" encoding="UTF-8" standalone="no"?>
<!DOCTYPE svg PUBLIC "-//W3C//DTD SVG 1.1//EN" "http://www.w3.org/Graphics/SVG/1.1/DTD/svg11.dtd">
<svg width="100%" height="100%" viewBox="0 0 1312 764" version="1.1" xmlns="http://www.w3.org/2000/svg" xmlns:xlink="http://www.w3.org/1999/xlink" xml:space="preserve" xmlns:serif="http://www.serif.com/" style="fill-rule:evenodd;clip-rule:evenodd;stroke-linecap:round;stroke-linejoin:round;stroke-miterlimit:1.5;">
    <g transform="matrix(1,0,0,1,-48.7598,-250.818)">
        <path d="M51.688,1002.18L1104.09,1012.71L1112.42,816.365L1347.45,813.19" style="fill:none;stroke:#f0f;stroke-width:4.17px;"/>
        <path d="M553.798,1005.98L50.843,1001.58" style="fill:none;stroke:#f0f;stroke-width:4.17px;"/>
        <path d="M1357.98,657.638L1100.57,658.412L1096.08,254.102L914.883,252.902L914.883,647.996L877,648.544L877,813.19L668.084,813.19L667.452,629.232L545.64,628.314L544.881,712.085L496.908,714.026L497.233,813.19L300.105,813.19L300.488,731.938L51.688,730.945L51.688,1001.26" style="fill:none;stroke:#f0f;stroke-width:4.17px;"/>
        <path d="M515.952,1005.28L517.05,875.689L557.088,875.315" style="fill:none;stroke:#f0f;stroke-width:4.17px;"/>
        <path d="M318.774,1001.26L320.702,863.299L213.319,865.312L211.02,925.248L51.688,927.286" style="fill:none;stroke:#f0f;stroke-width:4.17px;"/>
        <path d="M915.119,428.154L1039.35,428.486L1039.93,377.321L1096.88,375.651" style="fill:none;stroke:#f0f;stroke-width:4.17px;"/>
        <path d="M914.507,648.052L1038.68,648.501L1037.83,595.738L915.119,590.917" style="fill:none;stroke:#f0f;stroke-width:4.17px;"/>
        <path d="M373.413,863.299L515.952,863.299L515.952,1005.28L319.065,1003.53L320.702,863.299L354.883,863.299" style="fill:#f5f5f5;stroke:#f0f;stroke-width:4.17px;"/>
        <path d="M210.378,811.684L210.882,783.345L51.688,782.515L51.688,927.642L209.706,923.342L211.749,833.679" style="fill:#f5f5f5;stroke:#f0f;stroke-width:4.17px;"/>
        <path d="M930.409,813.19L990.093,813.19" style="fill:none;stroke:#f0f;stroke-width:4.17px;"/>
        <path d="M930.665,763.829L988.898,764.707" style="fill:none;stroke:#f0f;stroke-width:4.17px;"/>
        <path d="M601.571,863.839L560.05,863.328L556.054,1008.9L719.473,1008.9L715.79,873.782" style="fill:#f5f5f5;stroke:#f0f;stroke-width:4.17px;"/>
        <path d="M715.79,873.782L622.644,869.999" style="fill:#f5f5f5;stroke:#f0f;stroke-width:4.17px;"/>
        <path d="M51.938,780.604L149.264,781.451L150.592,733.362" style="fill:none;stroke:#f0f;stroke-width:4.17px;"/>
        <g transform="matrix(0.528126,0,0,1,150.606,0)">
            <path d="M185.346,753.772L239.435,754.474L241.154,812.823" style="fill:none;stroke:#f0f;stroke-width:5.21px;"/>
        </g>
        <path d="M1038.68,569.256L1038.68,595.934L914.507,590.917L914.507,428.46L1038.68,428.907L1038.68,544.97" style="fill:#f5f5f5;stroke:#f0f;stroke-width:4.17px;"/>
        <path d="M496.302,812.823L630.953,812.823" style="fill:none;stroke:#f0f;stroke-width:4.17px;"/>
        <path d="M1121.89,812.823L1119.7,692.669L1289.72,695.817" style="fill:none;stroke:#f0f;stroke-width:4.17px;"/>
        <path d="M877,692.669L1006.7,692.669L1007.68,673.051" style="fill:none;stroke:#f0f;stroke-width:4.17px;"/>
        <path d="M719.473,1008.9L947.407,1008.9L939.043,862.761L715.79,873.782" style="fill:none;stroke:#f0f;stroke-width:4.17px;"/>
        <path d="M1072.31,869.999L1110.44,869.999L1104.46,1012.36L946.419,1008.9L942.34,873.753L1051.73,869.999" style="fill:#f5f5f5;stroke:#f0f;stroke-width:4.17px;"/>
    </g>
</svg>
