<?xml version="1.0" encoding="UTF-8" standalone="no"?>
<!DOCTYPE svg PUBLIC "-//W3C//DTD SVG 1.1//EN" "http://www.w3.org/Graphics/SVG/1.1/DTD/svg11.dtd">
<svg width="100%" height="100%" viewBox="0 0 1311 764" version="1.1" xmlns="http://www.w3.org/2000/svg" xmlns:xlink="http://www.w3.org/1999/xlink" xml:space="preserve" xmlns:serif="http://www.serif.com/" style="fill-rule:evenodd;clip-rule:evenodd;stroke-linecap:round;stroke-linejoin:round;stroke-miterlimit:1.5;">
    <g transform="matrix(1,0,0,1,-49.605,-250.818)">
        <g>
            <path d="M914.429,472.723L1059.5,472.723L1059.5,364.001L914.429,364.001" style="fill:#f5f5f5;"/>
            <path d="M1072.31,869.999L1110.44,869.999L1104.46,1012.36L946.419,1008.9L942.34,873.753L1051.73,869.999" style="fill:#f5f5f5;stroke:#f0f;stroke-width:4.17px;"/>
            <path d="M915.446,254.979L1095.32,256.325L1096.22,363.689L914.429,364.001" style="fill:#f5f5f5;"/>
            <path d="M51.62,999.908L193.337,1002.22L193.337,801.681L52.121,802.974" style="fill:#f5f5f5;"/>
            <path d="M915.769,472.723L1059.5,473.118L1058.98,647.674L914.429,646.278" style="fill:#f5f5f5;"/>
            <path d="M195.779,875.775L412.219,875.775L412.615,1005.4L193.337,1002.22" style="fill:#f5f5f5;"/>
            <path d="M471.642,875.203L566.891,875.775L565.815,1005.4L472.223,1004.4" style="fill:#f5f5f5;"/>
            <path d="M566.891,875.775L734.341,876.665L734.106,1010.25L565.815,1005.84" style="fill:#f5f5f5;"/>
            <path d="M825.491,875.203L895.725,875.203L896.009,1010.25L734.106,1008.23L734.341,876.665L825.491,875.203" style="fill:#f5f5f5;"/>
        </g>
        <path d="M51.688,1002.18L1104.09,1012.71L1112.42,816.365L1347.45,813.19" style="fill:none;stroke:#f0f;stroke-width:4.17px;"/>
        <path d="M566.874,875.203L496.23,875.203" style="fill:none;stroke:#f0f;stroke-width:4.17px;"/>
        <path d="M479.23,875.203L471.814,875.203L472.009,1006.45" style="fill:none;stroke:#f0f;stroke-width:4.17px;"/>
        <path d="M454.371,875.203L471.814,875.203" style="fill:none;stroke:#f0f;stroke-width:4.17px;"/>
        <path d="M437.997,875.203L413.543,875.203" style="fill:none;stroke:#f0f;stroke-width:4.17px;"/>
        <path d="M351.5,875.203L413.543,875.203L412.937,1004.31" style="fill:none;stroke:#f0f;stroke-width:4.17px;"/>
        <path d="M330.208,875.203L194.937,875.203L194.851,904.139" style="fill:none;stroke:#f0f;stroke-width:4.17px;"/>
        <path d="M195.395,924.585L193.852,1000.87" style="fill:none;stroke:#f0f;stroke-width:4.17px;"/>
        <path d="M194.851,875.203L194.851,854.515" style="fill:none;stroke:#f0f;stroke-width:4.17px;"/>
        <path d="M193.852,832.381L193.852,770.872" style="fill:none;stroke:#f0f;stroke-width:4.17px;"/>
        <path d="M193.852,801.124L177.426,800.695" style="fill:none;stroke:#f0f;stroke-width:4.17px;"/>
        <path d="M157.956,801.627L52.076,801.627" style="fill:none;stroke:#f0f;stroke-width:4.17px;"/>
        <path d="M193.852,747.304L194.623,732.19" style="fill:none;stroke:#f0f;stroke-width:4.17px;"/>
        <path d="M1357.98,657.638L1100.57,658.412L1096.08,254.102L914.883,252.902L914.883,647.996L877,648.544L877,813.19L668.084,813.19L667.452,629.232L545.64,628.314L544.881,712.085L496.908,714.026L497.233,813.19L300.105,813.19L300.488,731.938L51.688,730.945L51.688,1001.26" style="fill:none;stroke:#f0f;stroke-width:4.17px;"/>
        <path d="M930.409,813.19L990.093,813.19" style="fill:none;stroke:#f0f;stroke-width:4.17px;"/>
        <path d="M930.665,763.829L988.898,764.707" style="fill:none;stroke:#f0f;stroke-width:4.17px;"/>
        <path d="M896.922,1009.88L896.378,875.504L915.571,875.203L826.344,875.297" style="fill:none;stroke:#f0f;stroke-width:4.17px;"/>
        <path d="M807.574,875.203L733.897,875.203L733.775,893.408" style="fill:none;stroke:#f0f;stroke-width:4.17px;"/>
        <path d="M733.775,1006.45L733.775,910.273" style="fill:none;stroke:#f0f;stroke-width:4.17px;"/>
        <path d="M733.775,875.203L710.186,875.203" style="fill:none;stroke:#f0f;stroke-width:4.17px;"/>
        <path d="M565.696,1006.45L566.874,918.422" style="fill:none;stroke:#f0f;stroke-width:4.17px;"/>
        <path d="M690.398,875.203L566.874,875.203L566.874,900.195" style="fill:none;stroke:#f0f;stroke-width:4.17px;"/>
        <path d="M915.086,647.933L1059.93,647.722L1060.12,497.058" style="fill:none;stroke:#f0f;stroke-width:4.17px;"/>
        <path d="M1060.12,477.248L1060.12,425.895" style="fill:none;stroke:#f0f;stroke-width:4.17px;"/>
        <path d="M1060.12,405.372L1060.12,364.214L1044.24,364.115L1079.9,364.575" style="fill:none;stroke:#f0f;stroke-width:4.17px;"/>
        <path d="M1027.39,365.622L915.086,366.029" style="fill:none;stroke:#f0f;stroke-width:4.17px;"/>
        <path d="M1060.12,472.006L915.086,472.436" style="fill:none;stroke:#f0f;stroke-width:4.17px;"/>
        <g transform="matrix(0.528126,0,0,1,150.606,0)">
            <path d="M185.346,753.772L239.435,754.474L241.154,812.823" style="fill:none;stroke:#f0f;stroke-width:5.21px;"/>
        </g>
        <path d="M496.302,812.823L630.953,812.823" style="fill:none;stroke:#f0f;stroke-width:4.17px;"/>
        <path d="M1121.89,812.823L1119.7,692.669L1289.72,695.817" style="fill:none;stroke:#f0f;stroke-width:4.17px;"/>
        <path d="M877,692.669L1006.7,692.669L1007.68,673.051" style="fill:none;stroke:#f0f;stroke-width:4.17px;"/>
        <path d="M1109.58,870.202L1122.35,813.32" style="fill:none;stroke:#f0f;stroke-width:4.17px;"/>
    </g>
</svg>
