<?xml version="1.0" encoding="UTF-8" standalone="no"?>
<!DOCTYPE svg PUBLIC "-//W3C//DTD SVG 1.1//EN" "http://www.w3.org/Graphics/SVG/1.1/DTD/svg11.dtd">
<svg width="100%" height="100%" viewBox="0 0 1311 764" version="1.1" xmlns="http://www.w3.org/2000/svg" xmlns:xlink="http://www.w3.org/1999/xlink" xml:space="preserve" xmlns:serif="http://www.serif.com/" style="fill-rule:evenodd;clip-rule:evenodd;stroke-linecap:round;stroke-linejoin:round;stroke-miterlimit:1.5;">
    <g transform="matrix(1,0,0,1,-49.605,-250.818)">
        <g>
            <path d="M915.138,299.817L915.138,461.485L1039.18,464.732L1036.9,299.817" style="fill:#f5f5f5;"/>
            <path d="M915.138,464.732L915.138,645.41L1039.18,644.844L1039.18,465.974" style="fill:#f5f5f5;"/>
            <path d="M270.793,873.84L259.772,873.867L261.618,1001.3L548.883,1007.17L545.672,859.584L274.395,858.448" style="fill:#f5f5f5;"/>
            <path d="M625.575,859.035L625.804,1007.18L886.224,1010.47L881.742,858.448" style="fill:#f5f5f5;"/>
            <path d="M51.465,1000.49L177.807,1001.3L176.586,733.868L53.957,732.093" style="fill:#f5f5f5;"/>
        </g>
        <path d="M51.688,1002.18L1104.09,1012.71L1112.42,816.365L1347.45,813.19" style="fill:none;stroke:#f0f;stroke-width:4.17px;"/>
        <path d="M545.161,857.303L585.661,857.303" style="fill:none;stroke:#f0f;stroke-width:4.17px;"/>
        <path d="M607.316,857.303L624.839,857.303" style="fill:none;stroke:#f0f;stroke-width:4.17px;"/>
        <path d="M677.717,857.303L624.839,857.303L625.985,1007.76" style="fill:none;stroke:#f0f;stroke-width:4.17px;"/>
        <path d="M699.568,857.303L811.877,857.303" style="fill:none;stroke:#f0f;stroke-width:4.17px;"/>
        <path d="M832.686,857.303L882.643,857.303L886.044,1007.76" style="fill:none;stroke:#f0f;stroke-width:4.17px;"/>
        <path d="M882.933,870.106L910.948,869.673L912.27,857.303L988.896,857.303" style="fill:none;stroke:#f0f;stroke-width:4.17px;"/>
        <path d="M1010.46,857.303L1013.54,1011.45" style="fill:none;stroke:#f0f;stroke-width:4.17px;"/>
        <path d="M1014.35,880.366L1109.86,882.063" style="fill:none;stroke:#f0f;stroke-width:4.17px;"/>
        <path d="M915.138,647.069L1002.43,645.469" style="fill:none;stroke:#f0f;stroke-width:4.17px;"/>
        <path d="M1025.83,646.391L1038.38,646.178L1039.18,330.015" style="fill:none;stroke:#f0f;stroke-width:4.17px;"/>
        <path d="M915.138,463.164L1010.46,462.487" style="fill:none;stroke:#f0f;stroke-width:4.17px;"/>
        <path d="M915.138,301.097L1047.64,299.817" style="fill:none;stroke:#f0f;stroke-width:4.17px;"/>
        <path d="M1039.18,299.899L1039.18,309.699" style="fill:none;stroke:#f0f;stroke-width:4.17px;"/>
        <path d="M1064.08,299.817L1095.88,299.817" style="fill:none;stroke:#f0f;stroke-width:4.17px;"/>
        <path d="M177.682,733.074L178.933,822.44" style="fill:#f5f5f5;stroke:#f0f;stroke-width:4.17px;"/>
        <path d="M178.933,854.977L179.747,908.952" style="fill:#f5f5f5;stroke:#f0f;stroke-width:4.17px;"/>
        <path d="M178.933,926.712L178.308,1003.77" style="fill:#f5f5f5;stroke:#f0f;stroke-width:4.17px;"/>
        <path d="M179.34,870.279L240.857,870.707" style="fill:#f5f5f5;stroke:#f0f;stroke-width:4.17px;"/>
        <path d="M295.676,857.448L272.174,857.303L271.557,872.692L259.52,872.439L261.901,1003.77" style="fill:none;stroke:#f0f;stroke-width:4.17px;"/>
        <path d="M318.145,857.303L495.513,857.303" style="fill:none;stroke:#f0f;stroke-width:4.17px;"/>
        <path d="M515.97,857.303L545.901,857.303L548.83,1003.77" style="fill:none;stroke:#f0f;stroke-width:4.17px;"/>
        <path d="M1357.98,657.638L1100.57,658.412L1096.08,254.102L914.883,252.902L914.883,647.996L877,648.544L877,813.19L668.084,813.19L667.452,629.232L545.64,628.314L544.881,712.085L496.908,714.026L497.233,813.19L300.105,813.19L300.488,731.938L51.688,730.945L51.688,1001.26" style="fill:none;stroke:#f0f;stroke-width:4.17px;"/>
        <path d="M930.409,813.19L990.093,813.19" style="fill:none;stroke:#f0f;stroke-width:4.17px;"/>
        <path d="M930.665,763.829L988.898,764.707" style="fill:none;stroke:#f0f;stroke-width:4.17px;"/>
        <g transform="matrix(0.528126,0,0,1,150.606,0)">
            <path d="M185.346,753.772L239.435,754.474L241.154,812.823" style="fill:none;stroke:#f0f;stroke-width:5.21px;"/>
        </g>
        <path d="M496.302,812.823L630.953,812.823" style="fill:none;stroke:#f0f;stroke-width:4.17px;"/>
        <path d="M1121.89,812.823L1119.7,692.669L1289.72,695.817" style="fill:none;stroke:#f0f;stroke-width:4.17px;"/>
        <path d="M877,692.669L1006.7,692.669L1007.68,673.051" style="fill:none;stroke:#f0f;stroke-width:4.17px;"/>
    </g>
</svg>
