<?xml version="1.0" encoding="UTF-8"?>
<svg width="27px" height="31px" viewBox="0 0 27 31" version="1.1" xmlns="http://www.w3.org/2000/svg" xmlns:xlink="http://www.w3.org/1999/xlink">
    <!-- Generator: Sketch 40.2 (33826) - http://www.bohemiancoding.com/sketch -->
    <title>baseline-meeting_room-24px</title>
    <desc>Created with Sketch.</desc>
    <defs></defs>
    <g id="Symbols" stroke="none" stroke-width="1" fill="none" fill-rule="evenodd">
        <g id="App-bar" transform="translate(-94.000000, -5.000000)">
            <g transform="translate(16.000000, -1.000000)" id="baseline-meeting_room-24px">
                <g transform="translate(78.651310, 6.000000)">
                    <path d="M16.5330659,30.9565014 L-1.12372074e-14,30.9565014 L-1.77635684e-14,-3.55271368e-15 L16.5330659,-3.55271368e-15 L16.5330659,1.71980563 L25.7181024,1.71980563 L25.7181024,30.9565014 L22.0440878,30.9565014 L22.0440878,5.1594169 L16.5330659,5.1594169 L16.5330659,30.9565014 Z M11.0220439,10.3188338 L14.6960585,10.3188338 L14.6960585,6.87922253 L11.0220439,6.87922253 L11.0220439,10.3188338 Z" id="Shape" fill="#EFEFF4"></path>
                    <path d="M11.701797,23.6054139 L11.0783423,23.6054139 L10.857371,23.405929 C11.6307705,22.5636594 12.0963886,21.4701865 12.0963886,20.2806653 C12.0963886,17.6282548 9.79986556,15.4782507 6.96669796,15.4782507 C4.13353036,15.4782507 1.83700732,17.6282548 1.83700732,20.2806653 C1.83700732,22.9330759 4.13353036,25.08308 6.96669796,25.08308 C8.23728287,25.08308 9.40527397,24.6471685 10.3049428,23.9231121 L10.5180222,24.1299854 L10.5180222,24.7136635 L14.4639381,28.4004403 L15.6398211,27.2995791 L11.701797,23.6054139 L11.701797,23.6054139 Z M6.96669796,23.6054139 C5.00163185,23.6054139 3.41537367,22.1203596 3.41537367,20.2806653 C3.41537367,18.4409711 5.00163185,16.9559167 6.96669796,16.9559167 C8.93176406,16.9559167 10.5180222,18.4409711 10.5180222,20.2806653 C10.5180222,22.1203596 8.93176406,23.6054139 6.96669796,23.6054139 L6.96669796,23.6054139 Z" id="Shape" fill="#030303"></path>
                </g>
            </g>
        </g>
    </g>
</svg>