<?xml version="1.0" encoding="UTF-8"?>
<svg width="26px" height="26px" viewBox="0 0 26 26" version="1.1" xmlns="http://www.w3.org/2000/svg" xmlns:xlink="http://www.w3.org/1999/xlink">
    <!-- Generator: Sketch 40.2 (33826) - http://www.bohemiancoding.com/sketch -->
    <title>Group</title>
    <desc>Created with Sketch.</desc>
    <defs></defs>
    <g id="Page-1" stroke="none" stroke-width="1" fill="none" fill-rule="evenodd">
        <g id="Mobile" transform="translate(-903.000000, -121.000000)">
            <g id="Stundenplan" transform="translate(595.000000, 95.000000)">
                <g id="Top" transform="translate(13.000000, 26.000000)">
                    <g id="003-calendar" transform="translate(295.000000, 0.000000)">
                        <g id="Capa_1">
                            <g id="Group">
                                <path d="M20.975191,3.63693203 L20.975191,1.77883843 C20.975191,0.793432387 20.1768854,0 19.1893912,0 C18.2018969,0 17.4044754,0.792551774 17.4044754,1.77883843 L17.4044754,3.63781264 C17.4053595,4.62145746 18.202781,5.412248 19.1893912,5.412248 C20.1760013,5.412248 20.975191,4.62145746 20.975191,3.63693203 Z" id="Shape" fill="#EFEFF4"></path>
                                <path d="M21.9388156,3.07686211 L21.9388156,3.98125174 C21.9388156,5.47389092 20.7214659,6.69001759 19.2203332,6.69001759 C17.7174324,6.69001759 16.502735,5.47389092 16.502735,3.98125174 L16.502735,3.07686211 L9.2490284,3.07686211 L9.2490284,3.98125174 C9.2490284,5.47389092 8.02991062,6.69001759 6.52966199,6.69001759 C5.02941336,6.69001759 3.81117964,5.47477153 3.81117964,3.98125174 L3.81117964,3.07686211 L0.183884334,3.03195084 L0.183884334,25.6443336 L1.99797402,25.6443336 L23.749369,25.6443336 L25.5608065,25.6390499 L25.5334007,3.07686211 L21.9388156,3.07686211 Z M1.99797402,23.8434798 L1.99797402,9.39790281 L23.749369,9.39790281 L23.749369,23.8434798 L1.99797402,23.8434798 Z" id="Shape" fill="#EFEFF4"></path>
                                <path d="M8.28805594,3.63693203 L8.28805594,1.77883843 C8.28805594,0.792551774 7.48798227,0 6.50137209,0 C5.51476191,0 4.71734043,0.792551774 4.71734043,1.77883843 L4.71734043,3.63781264 C4.71734043,4.62145746 5.51387785,5.412248 6.50137209,5.412248 C7.48798227,5.412248 8.28805594,4.62145746 8.28805594,3.63693203 Z" id="Shape" fill="#EFEFF4"></path>
                                <text id="Hint-text" fill="#D8D8D8" font-family="Roboto-Light, Roboto" font-size="14" font-weight="300" line-spacing="24">
                                    <tspan x="5" y="21">27</tspan>
                                </text>
                            </g>
                        </g>
                    </g>
                </g>
            </g>
        </g>
    </g>
</svg>